<svg width="40" height="40" viewBox="0 0 40 40" fill="none" xmlns="http://www.w3.org/2000/svg">
<g clip-path="url(#clip0_563_753)">
<path d="M8.10512 9.2536H4.54194C4.22691 9.2536 3.97168 9.5085 3.97168 9.82311C3.97168 10.1377 4.22691 10.3926 4.54194 10.3926H8.1048C8.41991 10.3926 8.67506 10.1377 8.67506 9.82311C8.67506 9.5085 8.41991 9.2536 8.1048 9.2536H8.10512ZM16.0624 10.3926H19.6253C19.9404 10.3926 20.1955 10.1377 20.1955 9.82311C20.1955 9.5085 19.9404 9.2536 19.6253 9.2536H16.0624C15.7474 9.2536 15.4922 9.5085 15.4922 9.82311C15.4922 10.1377 15.7474 10.3926 16.0624 10.3926ZM13.8654 9.2536H10.3022C9.98716 9.2536 9.73192 9.5085 9.73192 9.82311C9.73192 10.1377 9.98716 10.3926 10.3022 10.3926H13.8654C14.0149 10.3901 14.1575 10.329 14.2624 10.2225C14.3673 10.1159 14.4261 9.97251 14.4261 9.82311C14.4261 9.67371 14.3673 9.5303 14.2624 9.42377C14.1575 9.31724 14.0149 9.25613 13.8654 9.2536ZM8.10512 14.2111H4.54194C4.39237 14.2136 4.24978 14.2748 4.14489 14.3813C4.04001 14.4878 3.98124 14.6312 3.98124 14.7806C3.98124 14.93 4.04001 15.0734 4.14489 15.18C4.24978 15.2865 4.39237 15.3476 4.54194 15.3501H8.1048C8.25437 15.3476 8.39696 15.2865 8.50185 15.18C8.60673 15.0734 8.6655 14.93 8.6655 14.7806C8.6655 14.6312 8.60673 14.4878 8.50185 14.3813C8.39696 14.2748 8.25437 14.2136 8.1048 14.2111H8.10512ZM16.0624 15.3501H19.6253C19.7749 15.3476 19.9175 15.2865 20.0223 15.18C20.1272 15.0734 20.186 14.93 20.186 14.7806C20.186 14.6312 20.1272 14.4878 20.0223 14.3813C19.9175 14.2748 19.7749 14.2136 19.6253 14.2111H16.0624C15.9129 14.2136 15.7703 14.2748 15.6654 14.3813C15.5605 14.4878 15.5017 14.6312 15.5017 14.7806C15.5017 14.93 15.5605 15.0734 15.6654 15.18C15.7703 15.2865 15.9129 15.3476 16.0624 15.3501ZM13.8654 14.2111H10.3022C10.1526 14.2136 10.01 14.2748 9.90514 14.3813C9.80026 14.4878 9.74148 14.6312 9.74148 14.7806C9.74148 14.93 9.80026 15.0734 9.90514 15.18C10.01 15.2865 10.1526 15.3476 10.3022 15.3501H13.8654C14.0149 15.3476 14.1575 15.2865 14.2624 15.18C14.3673 15.0734 14.4261 14.93 14.4261 14.7806C14.4261 14.6312 14.3673 14.4878 14.2624 14.3813C14.1575 14.2748 14.0149 14.2136 13.8654 14.2111ZM8.10512 19.1683H4.54194C4.22691 19.1683 3.97168 19.4231 3.97168 19.7378C3.97168 20.0524 4.22691 20.3073 4.54194 20.3073H8.1048C8.41991 20.3073 8.67506 20.0524 8.67506 19.7378C8.67506 19.4231 8.41991 19.1683 8.1048 19.1683H8.10512ZM16.0624 20.3073H19.6253C19.9404 20.3073 20.1955 20.0524 20.1955 19.7378C20.1955 19.4231 19.9404 19.1683 19.6253 19.1683H16.0624C15.7474 19.1683 15.4922 19.4231 15.4922 19.7378C15.4922 20.0524 15.7474 20.3073 16.0624 20.3073ZM13.8654 19.1683H10.3022C9.98716 19.1683 9.73192 19.4231 9.73192 19.7378C9.73192 20.0524 9.98716 20.3073 10.3022 20.3073H13.8654C14.0149 20.3048 14.1575 20.2437 14.2624 20.1372C14.3673 20.0306 14.4261 19.8872 14.4261 19.7378C14.4261 19.5884 14.3673 19.445 14.2624 19.3385C14.1575 19.232 14.0149 19.1708 13.8654 19.1683ZM8.10512 24.1258H4.54194C4.22691 24.1258 3.97168 24.3807 3.97168 24.6953C3.97168 25.0099 4.22691 25.2648 4.54194 25.2648H8.1048C8.41991 25.2648 8.67506 25.0099 8.67506 24.6953C8.67506 24.3807 8.41991 24.1258 8.1048 24.1258H8.10512ZM13.8654 24.1258H10.3022C9.98716 24.1258 9.73192 24.3807 9.73192 24.6953C9.73192 25.0099 9.98716 25.2648 10.3022 25.2648H13.8654C14.0149 25.2623 14.1575 25.2011 14.2624 25.0946C14.3673 24.9881 14.4261 24.8447 14.4261 24.6953C14.4261 24.5459 14.3673 24.4025 14.2624 24.2959C14.1575 24.1894 14.0149 24.1283 13.8654 24.1258Z" fill="#FF8125"/>
<path d="M28.7535 18.5215C27.2782 18.5202 25.8185 18.8237 24.4663 19.413V5.15815C24.4663 4.84378 24.211 4.58864 23.896 4.58864H21.3556V0.569512C21.3556 0.254897 21.1004 0 20.7854 0H4.19611C3.88108 0 3.62585 0.254897 3.62585 0.569512V4.58848H1.0854C0.770371 4.58848 0.515137 4.8437 0.515137 5.15799V37.7445C0.515137 38.0591 0.770371 38.314 1.0854 38.314H22.9754C24.7001 39.4173 26.7059 40.0025 28.7541 39.9999C34.6836 39.9999 39.5076 35.1823 39.5076 29.2606C39.5076 23.3388 34.6833 18.5215 28.7534 18.5215H28.7535ZM4.7663 1.13902H20.215V4.5888H4.76638L4.7663 1.13902ZM16.2598 37.175H8.33754V28.7997H16.2598V37.175ZM17.4003 37.175V28.2302C17.4003 27.9156 17.1451 27.6607 16.8301 27.6607H7.76728C7.45249 27.6607 7.19701 27.9156 7.19701 28.2302V37.175H1.65567V5.7275H23.3257V19.9933C21.6384 20.9834 20.2511 22.4114 19.3113 24.1258H16.0622C15.7472 24.1258 15.4919 24.3806 15.4919 24.6953C15.4919 25.0099 15.7472 25.2648 16.0622 25.2648H18.7728C17.1057 29.4131 18.1895 34.1593 21.4931 37.1756L17.4003 37.175ZM22.8065 36.798V31.7474C22.808 30.4555 23.8562 29.4087 25.1498 29.4071H25.7376L27.6575 34.6547L27.3933 37.1053C27.382 37.2095 27.3997 37.3147 27.4444 37.4095C27.4891 37.5043 27.5591 37.5849 27.6467 37.6425L28.5609 38.2437C28.655 38.3055 28.7654 38.3381 28.878 38.3374C28.9906 38.3368 29.1005 38.3029 29.1939 38.24L30.0856 37.6386C30.1715 37.5807 30.2399 37.5004 30.2836 37.4066C30.3273 37.3127 30.3445 37.2087 30.3335 37.1057L30.069 34.6547L31.959 29.4071H32.3573C33.651 29.4087 34.6992 30.4556 34.7008 31.7474V36.798C31.2146 39.5487 26.2932 39.5487 22.8067 36.798H22.8065ZM29.1627 36.8867L28.8706 37.0835L28.5644 36.8819L28.8632 34.111L29.1627 36.8867ZM29.0242 30.1038H28.6367L28.4693 29.6108L29.192 29.6133L29.0242 30.1038ZM35.841 35.7395V31.7478C35.8388 29.8269 34.2804 28.2706 32.3571 28.2684H31.5577C31.4402 28.2684 31.3257 28.3046 31.2297 28.372C31.1336 28.4395 31.0608 28.535 31.0211 28.6453L29.7896 32.0649L29.6941 31.1789C29.8249 31.1116 29.9245 30.9963 29.9719 30.8572L30.5275 29.2307C30.5568 29.1452 30.5652 29.0539 30.5521 28.9645C30.539 28.8751 30.5047 28.7901 30.4522 28.7165C30.3997 28.6429 30.3304 28.5827 30.2501 28.5412C30.1697 28.4996 30.0806 28.4778 29.9901 28.4775L27.6743 28.4693C27.5835 28.469 27.494 28.4903 27.4131 28.5315C27.3323 28.5727 27.2624 28.6327 27.2094 28.7063C27.1564 28.7799 27.1218 28.8651 27.1084 28.9547C27.095 29.0444 27.1032 29.136 27.1324 29.2218L27.688 30.8567C27.7153 30.9366 27.7602 31.0095 27.8192 31.07C27.8783 31.1306 27.9501 31.1772 28.0295 31.2065L27.934 32.0926L26.6719 28.6431C26.6317 28.5334 26.5588 28.4387 26.4629 28.3717C26.3671 28.3047 26.253 28.2688 26.136 28.2687H25.1498C23.2264 28.2709 21.6681 29.8275 21.6658 31.7481V35.7401C18.1526 31.9111 18.3254 25.9862 22.0557 22.3677C25.7857 18.7494 31.7209 18.7494 35.4512 22.3677C39.1815 25.9862 39.3542 31.9111 35.841 35.7401V35.7395Z" fill="#FF8125"/>
<path d="M28.7534 20.1843C26.9051 20.1862 25.4075 21.6821 25.4053 23.5279V24.6377C25.4053 26.4846 26.9041 27.9818 28.7533 27.9818C30.6025 27.9818 32.1017 26.4845 32.1017 24.6377V23.5283C32.0994 21.6825 30.6019 20.1862 28.7533 20.1843H28.7534ZM30.9615 24.6377C30.9599 25.8546 29.9725 26.8411 28.7536 26.8424C27.5351 26.8411 26.5474 25.8547 26.546 24.6377V23.5283C26.546 22.3105 27.5345 21.3234 28.7536 21.3234C29.9731 21.3234 30.9615 22.3105 30.9615 23.5283V24.6377Z" fill="#FF8125"/>
</g>
<defs>
<clipPath id="clip0_563_753">
<rect width="40" height="40" fill="white"/>
</clipPath>
</defs>
</svg>
