<svg width="40" height="40" viewBox="0 0 40 40" fill="none" xmlns="http://www.w3.org/2000/svg">
<path d="M19 22C19 22.2652 19.1054 22.5196 19.2929 22.7071C19.4804 22.8946 19.7348 23 20 23C20.2652 23 20.5196 22.8946 20.7071 22.7071C20.8946 22.5196 21 22.2652 21 22C21 21.7348 20.8946 21.4804 20.7071 21.2929C20.5196 21.1054 20.2652 21 20 21C19.7348 21 19.4804 21.1054 19.2929 21.2929C19.1054 21.4804 19 21.7348 19 22Z" fill="#FF8125"/>
<path d="M23.9525 24.3424H15.8218L4 15.0206V15.8467L15.604 25H24.1584L36 15.822V15L23.9525 24.3424Z" fill="#FF8125"/>
<path d="M27.5 10.0312V6.33984H12.5V10.0312H2.5V33.6641H37.5V10.0312H27.5ZM14.2188 8.05859H25.7812V10.0273H14.2188V8.05859ZM35.7812 31.9453H4.21875V30.0391H35.7812V31.9453ZM35.7812 29.4102H4.21875V11.75H35.7812V29.4102Z" fill="#FF8125"/>
</svg>
