<svg width="1920" height="355" viewBox="0 0 1920 355" fill="none" xmlns="http://www.w3.org/2000/svg">
<rect width="1920" height="341" fill="#DBEAFE"/>
<mask id="mask0_195_158" style="mask-type:alpha" maskUnits="userSpaceOnUse" x="0" y="338" width="1920" height="18">
<rect y="338.992" width="1920" height="16.0167" fill="#D9D9D9"/>
</mask>
<g mask="url(#mask0_195_158)">
<path d="M1268.09 352.008L1253.66 339.989H1282.52H1311.39H1340.26H1369.13H1397.99H1426.86H1455.73H1484.59H1513.46H1542.33H1571.19H1600.06H1628.93H1657.79H1686.66H1715.53H1744.4H1773.26H1802.13H1831H1859.86H1891.14H1920L1905.57 352.008L1891.14 339.989L1874.3 352.008L1859.86 339.989L1845.43 352.008L1831 339.989L1816.56 352.008L1802.13 339.989L1787.7 352.008L1773.26 339.989L1758.83 352.008L1744.4 339.989L1729.96 352.008L1715.53 339.989L1701.09 352.008L1686.66 339.989L1672.23 352.008L1657.79 339.989L1643.36 352.008L1628.93 339.989L1614.49 352.008L1600.06 339.989L1585.63 352.008L1571.19 339.989L1556.76 352.008L1542.33 339.989L1527.89 352.008L1513.46 339.989L1499.03 352.008L1484.59 339.989L1470.16 352.008L1455.73 339.989L1441.29 352.008L1426.86 339.989L1412.43 352.008L1397.99 339.989L1383.56 352.008L1369.13 339.989L1354.69 352.008L1340.26 339.989L1325.83 352.008L1311.39 339.989L1296.96 352.008L1282.52 339.989L1268.09 352.008Z" fill="#DBEAFE"/>
<path d="M602.648 352.008L588.215 339.989H617.082H645.948H674.815H703.682H732.549H761.416H790.283H819.15H848.017H876.883H905.75H934.617H963.484H992.351H1021.22H1050.08H1078.95H1107.82H1136.69H1165.55H1194.42H1225.69H1254.56L1240.12 352.008L1225.69 339.989L1208.85 352.008L1194.42 339.989L1179.99 352.008L1165.55 339.989L1151.12 352.008L1136.69 339.989L1122.25 352.008L1107.82 339.989L1093.39 352.008L1078.95 339.989L1064.52 352.008L1050.08 339.989L1035.65 352.008L1021.22 339.989L1006.78 352.008L992.351 339.989L977.917 352.008L963.484 339.989L949.051 352.008L934.617 339.989L920.184 352.008L905.75 339.989L891.317 352.008L876.883 339.989L862.45 352.008L848.017 339.989L833.583 352.008L819.15 339.989L804.716 352.008L790.283 339.989L775.85 352.008L761.416 339.989L746.982 352.008L732.549 339.989L718.116 352.008L703.682 339.989L689.249 352.008L674.815 339.989L660.382 352.008L645.948 339.989L631.515 352.008L617.082 339.989L602.648 352.008Z" fill="#DBEAFE"/>
<path d="M-63.8391 352.008L-78.2727 339.989H-49.4058H-20.5388H8.32812H37.1948H66.062H94.9287H123.795H152.663H181.529H210.396H239.263H268.13H296.997H325.864H354.73H383.598H412.464H441.331H470.198H499.065H527.932H559.205H588.071L573.638 352.008L559.205 339.989L542.365 352.008L527.932 339.989L513.499 352.008L499.065 339.989L484.632 352.008L470.198 339.989L455.765 352.008L441.331 339.989L426.898 352.008L412.464 339.989L398.031 352.008L383.598 339.989L369.164 352.008L354.73 339.989L340.297 352.008L325.864 339.989L311.43 352.008L296.997 339.989L282.563 352.008L268.13 339.989L253.697 352.008L239.263 339.989L224.83 352.008L210.396 339.989L195.963 352.008L181.529 339.989L167.096 352.008L152.663 339.989L138.229 352.008L123.795 339.989L109.362 352.008L94.9287 339.989L80.4951 352.008L66.062 339.989L51.6284 352.008L37.1948 339.989L22.7617 352.008L8.32812 339.989L-6.10547 352.008L-20.5388 339.989L-34.9722 352.008L-49.4058 339.989L-63.8391 352.008Z" fill="#DBEAFE"/>
</g>
</svg>
