<svg width="38" height="38" viewBox="0 0 38 38" fill="none" xmlns="http://www.w3.org/2000/svg">
<g clip-path="url(#clip0_479_1732)">
<path d="M3.581 7.53524L3.18289 9.81657C3.13561 10.0871 3.20983 10.3627 3.38654 10.573C3.56326 10.7832 3.82206 10.9038 4.09667 10.9038H9.58128C9.85589 10.9038 10.1148 10.7832 10.2914 10.573C10.4681 10.3627 10.5423 10.087 10.4951 9.81657L10.097 7.53516C9.98615 6.90059 9.48027 6.42448 8.85795 6.33779C9.10384 5.96031 9.24737 5.51033 9.24737 5.02724V4.29217C9.24737 2.96418 8.16697 1.88385 6.83905 1.88385C5.51098 1.88385 4.43065 2.96425 4.43065 4.29217V5.02724C4.43065 5.51033 4.57419 5.96031 4.82008 6.33779C4.19768 6.42455 3.6918 6.90067 3.581 7.53524ZM5.54386 4.29217C5.54386 3.57812 6.12484 2.99713 6.83898 2.99713C7.55303 2.99713 8.13402 3.57812 8.13402 4.29217V5.02724C8.13402 5.7413 7.55303 6.32228 6.83898 6.32228C6.12484 6.32228 5.54386 5.7413 5.54386 5.02724V4.29217ZM4.67773 7.72665C4.70712 7.55802 4.85273 7.43556 5.02388 7.43556H8.654C8.82514 7.43556 8.97076 7.55795 9.00015 7.72657L9.36041 9.79052H4.31747L4.67773 7.72665ZM30.5346 33.3533C30.677 33.3533 30.8195 33.2989 30.9282 33.1903L34.1995 29.9191C34.4169 29.7016 34.4169 29.3492 34.1995 29.1319C33.9821 28.9146 33.6297 28.9145 33.4123 29.1319L30.5346 32.0095L28.9097 30.3845C28.6922 30.1672 28.3398 30.1672 28.1225 30.3845C27.9051 30.602 27.9051 30.9544 28.1225 31.1718L30.141 33.1904C30.2496 33.2989 30.3921 33.3533 30.5346 33.3533ZM17.4155 23.0155H20.5843C21.4886 23.0155 22.2719 22.4024 22.4894 21.5245L23.2358 18.51C23.3048 18.2311 23.243 17.9414 23.0659 17.7152C22.8888 17.4889 22.6225 17.3591 22.3352 17.3591H21.3565V17.2632C21.3565 15.9637 20.2994 14.9065 18.9999 14.9065C17.7004 14.9065 16.6432 15.9637 16.6432 17.2632V17.3591H15.6645C15.3772 17.3591 15.111 17.4889 14.9339 17.7152C14.7568 17.9414 14.6949 18.2311 14.764 18.5099L15.5104 21.5244C15.7278 22.4024 16.5112 23.0155 17.4155 23.0155ZM17.7566 17.2632C17.7566 16.5777 18.3144 16.0198 18.9999 16.0198C19.6855 16.0198 20.2433 16.5777 20.2433 17.2632V17.3592H17.7566V17.2632ZM22.0981 18.4725L21.4088 21.257C21.3147 21.6369 20.9756 21.9023 20.5844 21.9023H17.4156C17.0243 21.9023 16.6853 21.6369 16.5912 21.257L15.9018 18.4725H22.0981Z" fill="#FF8125"/>
<path d="M31.161 24.3219C29.7906 24.3219 28.4682 24.7259 27.3368 25.4903C27.0821 25.6624 27.0151 26.0084 27.1871 26.2631C27.3592 26.5179 27.7053 26.5849 27.96 26.4128C28.9066 25.7733 30.0135 25.4352 31.161 25.4352C34.3182 25.4352 36.8867 28.0038 36.8867 31.161C36.8867 34.3182 34.3182 36.8867 31.161 36.8867C28.0038 36.8867 25.4353 34.3182 25.4353 31.161C25.4353 30.045 25.7563 28.9638 26.3636 28.034C26.5317 27.7766 26.4594 27.4317 26.202 27.2635C25.9446 27.0956 25.5996 27.1677 25.4315 27.4252C24.8072 28.3809 24.4369 29.4703 24.3452 30.6043H11.4351C9.36047 30.6043 7.49758 29.4639 6.54795 27.6572C7.50945 27.2067 8.17735 26.2301 8.17735 25.1C8.17735 23.9634 7.50166 22.9822 6.53125 22.5352C7.47665 20.7124 9.35661 19.5566 11.4351 19.5566H12.1838C12.468 23.0683 15.4163 25.839 19 25.839C22.5837 25.839 25.532 23.0683 25.8162 19.5566H26.5649C29.1664 19.5566 31.4947 18.0611 32.5826 15.7212C32.6036 15.7216 32.6243 15.7227 32.6453 15.7227C34.2018 15.7227 35.468 14.4564 35.468 12.9C35.468 11.3435 34.2017 10.0773 32.6453 10.0773C32.6301 10.0773 32.6152 10.0782 32.6001 10.0784C32.1061 8.99902 31.3355 8.07485 30.3524 7.39048C29.2376 6.61445 27.9278 6.20432 26.5648 6.20432H13.6478C13.5426 5.06246 13.1553 3.97048 12.5097 3.01484C12.3377 2.76005 11.9915 2.6931 11.7369 2.86514C11.4821 3.03725 11.4151 3.38326 11.5872 3.63798C12.2267 4.58464 12.5648 5.69154 12.5648 6.83889C12.5648 9.99608 9.99623 12.5646 6.83904 12.5646C3.68177 12.5648 1.11328 9.99623 1.11328 6.83896C1.11328 3.68177 3.68177 1.11328 6.83896 1.11328C7.94816 1.11328 9.02396 1.43071 9.95006 2.03137C10.208 2.19866 10.5528 2.12525 10.7199 1.8672C10.8872 1.60921 10.8138 1.26454 10.5558 1.09725C9.44894 0.379406 8.16369 0 6.83896 0C3.06798 0 0 3.06798 0 6.83896C0 10.6101 3.06798 13.678 6.83896 13.678C10.4491 13.678 13.4144 10.8661 13.661 7.3176H26.5648C28.6718 7.3176 30.5472 8.48261 31.485 10.3278C30.5058 10.7712 29.8225 11.757 29.8225 12.9C29.8225 14.0365 30.498 15.0176 31.4683 15.4647C30.5236 17.2891 28.6497 18.4433 26.5647 18.4433H25.8162C25.532 14.9316 22.5837 12.161 19 12.161C15.4163 12.161 12.468 14.9317 12.1838 18.4433H11.4351C8.84153 18.4433 6.50505 19.9409 5.41686 22.2788C5.39607 22.2783 5.37552 22.2772 5.35466 22.2772C3.79822 22.2772 2.53197 23.5435 2.53197 25.0999C2.53197 26.6564 3.79829 27.9227 5.35466 27.9227C5.3819 27.9227 5.40884 27.9214 5.43586 27.9206C6.53118 30.2389 8.84584 31.7175 11.4352 31.7175H24.3449C24.6291 35.2292 27.5775 37.9999 31.1611 37.9999C34.9322 37.9999 38.0001 34.9319 38.0001 31.1609C38 27.3899 34.932 24.3219 31.161 24.3219ZM30.9359 12.9C30.9359 11.9575 31.7028 11.1906 32.6453 11.1906C33.5879 11.1906 34.3547 11.9575 34.3547 12.9C34.3547 13.8426 33.5879 14.6095 32.6453 14.6095C31.7028 14.6095 30.9359 13.8426 30.9359 12.9ZM19 13.2743C22.1572 13.2743 24.7258 15.8428 24.7258 19C24.7258 22.1572 22.1572 24.7258 19 24.7258C15.8428 24.7258 13.2743 22.1572 13.2743 19C13.2743 15.8428 15.8428 13.2743 19 13.2743ZM3.64518 25.1C3.64518 24.1575 4.41201 23.3906 5.35459 23.3906C6.29716 23.3906 7.06414 24.1574 7.06414 25.1C7.06414 26.0426 6.29724 26.8095 5.35466 26.8095C4.41208 26.8095 3.64518 26.0426 3.64518 25.1Z" fill="#FF8125"/>
</g>
<defs>
<clipPath id="clip0_479_1732">
<rect width="38" height="38" fill="white"/>
</clipPath>
</defs>
</svg>
