<svg width="38" height="37" viewBox="0 0 38 37" fill="none" xmlns="http://www.w3.org/2000/svg">
<g clip-path="url(#clip0_563_467)">
<path d="M31.8786 30.2387C31.1117 31.1737 30.2529 32.029 29.315 32.7918C26.1005 35.4076 22.1533 36.8049 18.0574 36.8049C17.5214 36.8049 16.9836 36.7809 16.4438 36.7327C12.2415 36.3573 8.37525 34.5467 5.41933 31.5965L5.5665 32.843C5.5761 32.9242 5.56841 33.0065 5.54393 33.0844C5.51945 33.1624 5.47875 33.2343 5.4245 33.2953C5.37025 33.3564 5.30369 33.4052 5.22921 33.4386C5.15473 33.472 5.07402 33.4893 4.9924 33.4892C4.85112 33.489 4.7148 33.4369 4.60925 33.3429C4.50371 33.2488 4.43627 33.1193 4.41968 32.9788L4.06061 29.938C4.04998 29.8481 4.0606 29.7569 4.09162 29.6719C4.12264 29.5868 4.17318 29.5102 4.23917 29.4483C4.30523 29.3864 4.38484 29.341 4.47163 29.3155C4.55843 29.29 4.64997 29.2853 4.73892 29.3017L7.69722 29.8486C7.84781 29.8764 7.98119 29.963 8.06801 30.0893C8.15483 30.2156 8.18797 30.3713 8.16016 30.5221C8.13235 30.6729 8.04585 30.8064 7.91969 30.8933C7.79354 30.9803 7.63807 31.0135 7.48747 30.9856L6.20418 30.7484C12.2375 36.8153 21.838 37.3861 28.5867 31.8946C29.4643 31.1808 30.268 30.3804 30.9856 29.5055C31.0337 29.4468 31.0929 29.3981 31.1597 29.3623C31.2266 29.3265 31.2999 29.3042 31.3753 29.2967C31.4508 29.2893 31.527 29.2968 31.5995 29.3188C31.6721 29.3408 31.7396 29.3769 31.7983 29.4251C31.9167 29.5223 31.9916 29.6627 32.0067 29.8153C32.0218 29.9678 31.9757 30.1202 31.8786 30.2387ZM7.47607 5.8874C9.35049 4.36201 11.5366 3.2596 13.8569 2.66088L12.9411 3.88903C12.8958 3.94986 12.8628 4.01905 12.8441 4.09263C12.8255 4.16621 12.8215 4.24275 12.8324 4.31789C12.8432 4.39302 12.8688 4.46527 12.9076 4.53051C12.9464 4.59575 12.9976 4.6527 13.0583 4.69812C13.1579 4.77283 13.279 4.81315 13.4034 4.81302C13.4933 4.81317 13.582 4.79224 13.6624 4.75191C13.7428 4.71158 13.8127 4.65297 13.8664 4.58076L15.696 2.12713C15.7501 2.05457 15.7864 1.9703 15.8021 1.88111C15.8177 1.79191 15.8122 1.70029 15.7859 1.61362C15.7597 1.52696 15.7135 1.44767 15.6511 1.38216C15.5886 1.31664 15.5117 1.26673 15.4265 1.23645L12.5914 0.229215C12.2908 0.122189 11.9607 0.279873 11.8541 0.580642C11.8029 0.725135 11.8111 0.884083 11.8769 1.02252C11.9427 1.16096 12.0608 1.26754 12.2051 1.31884L13.1502 1.65458C10.8252 2.31581 8.63804 3.4519 6.74774 4.99015C3.77342 7.41039 1.69076 10.6462 0.724679 14.3479C-0.221699 17.9743 -0.0255233 21.7354 1.29206 25.2247C1.31879 25.2958 1.35927 25.3609 1.41117 25.4163C1.46307 25.4717 1.52537 25.5163 1.59451 25.5475C1.66365 25.5787 1.73826 25.596 1.81408 25.5984C1.88989 25.6007 1.96543 25.588 2.03634 25.5611C2.10728 25.5342 2.17224 25.4936 2.22751 25.4417C2.28278 25.3897 2.32728 25.3273 2.35847 25.2581C2.38967 25.1889 2.40694 25.1142 2.4093 25.0383C2.41167 24.9624 2.39908 24.8868 2.37225 24.8158C-0.180414 18.0555 1.87063 10.4487 7.47607 5.8874ZM18.0313 7.05853C24.5476 7.05853 29.8491 12.3665 29.8491 18.8909C29.8491 25.4153 24.5476 30.7233 18.0313 30.7233C11.515 30.7233 6.21356 25.4153 6.21356 18.8909C6.21356 12.3665 11.515 7.05853 18.0313 7.05853ZM7.36838 18.8909C7.36838 24.7778 12.1517 29.567 18.0313 29.567C23.9109 29.567 28.6942 24.7778 28.6942 18.8909C28.6942 13.004 23.9109 8.21478 18.0313 8.21478C12.1517 8.21478 7.36838 13.004 7.36838 18.8909ZM17.454 23.6504V24.3291C17.454 24.4824 17.5148 24.6295 17.6231 24.7379C17.7314 24.8463 17.8782 24.9072 18.0314 24.9072C18.1845 24.9072 18.3314 24.8463 18.4397 24.7379C18.548 24.6295 18.6088 24.4824 18.6088 24.3291V23.659C19.5283 23.5476 20.3357 23.167 20.8239 22.6018C21.2447 22.1147 21.4242 21.5031 21.3429 20.833C21.0935 18.7763 18.8649 18.4099 18.1326 18.2895C16.1954 17.9711 16.1543 17.121 16.1407 16.8416C16.0974 15.9488 16.8187 15.4634 17.5082 15.3069C18.4239 15.0986 19.5578 15.3884 20.0258 16.5042C20.0851 16.6455 20.198 16.7575 20.3398 16.8155C20.4815 16.8734 20.6405 16.8727 20.7817 16.8134C20.8516 16.784 20.915 16.7411 20.9684 16.6872C21.0218 16.6332 21.064 16.5693 21.0927 16.499C21.1213 16.4287 21.1359 16.3535 21.1355 16.2776C21.1352 16.2016 21.1199 16.1265 21.0905 16.0565C20.5961 14.8776 19.6111 14.2908 18.6086 14.1349V13.4528C18.6086 13.2995 18.5478 13.1524 18.4395 13.044C18.3312 12.9356 18.1844 12.8747 18.0312 12.8747C17.8781 12.8747 17.7312 12.9356 17.6229 13.044C17.5147 13.1524 17.4538 13.2995 17.4538 13.4528V14.1398C17.386 14.151 17.3188 14.1642 17.2528 14.1792C15.8345 14.5013 14.924 15.5938 14.9873 16.8976C15.0328 17.8387 15.583 19.0421 17.9454 19.4306C19.4019 19.67 20.0961 20.1455 20.1965 20.9723C20.2385 21.3194 20.158 21.605 19.9503 21.8454C19.6037 22.2466 18.8891 22.5175 18.1295 22.5356C17.2462 22.5575 16.117 22.1837 15.8379 21.0628C15.8009 20.914 15.7063 20.7861 15.5751 20.7071C15.4438 20.6282 15.2866 20.6046 15.138 20.6417C14.9894 20.6788 14.8616 20.7735 14.7827 20.9049C14.7038 21.0364 14.6803 21.1938 14.7174 21.3426C15.0264 22.5826 16.0872 23.4535 17.454 23.6504ZM8.87067 18.8909C8.87067 13.8336 12.9802 9.71899 18.0313 9.71899C23.0824 9.71899 27.192 13.8336 27.192 18.8909C27.192 23.9483 23.0824 28.0628 18.0313 28.0628C12.9802 28.0628 8.87067 23.9484 8.87067 18.8909ZM10.0255 18.8909C10.0255 23.3108 13.6169 26.9066 18.0313 26.9066C22.4457 26.9066 26.0371 23.3108 26.0371 18.8909C26.0371 14.4711 22.4457 10.8752 18.0313 10.8752C13.6169 10.8752 10.0255 14.4711 10.0255 18.8909ZM36.9569 22.6894C36.8576 22.5728 36.716 22.5004 36.5633 22.4883C36.4107 22.4761 36.2594 22.5252 36.1429 22.6247L35.3763 23.2794C35.9771 20.8881 36.0844 18.3819 35.6814 15.9458C35.1766 12.895 33.8743 10.0068 31.9152 7.5933C29.1504 4.18735 25.2464 1.92196 20.9223 1.21456C20.6074 1.16339 20.3108 1.37679 20.2593 1.69187C20.2347 1.84319 20.271 1.99813 20.3604 2.12261C20.4498 2.2471 20.5849 2.33094 20.7361 2.3557C24.7808 3.01737 28.4327 5.13641 31.019 8.32253C34.4778 12.5837 35.6174 18.1426 34.1557 23.3848L33.5516 21.9777C33.5217 21.9079 33.4783 21.8448 33.424 21.7918C33.3697 21.7388 33.3055 21.6971 33.235 21.669C33.1646 21.6408 33.0893 21.6269 33.0135 21.6279C32.9377 21.6289 32.8628 21.6449 32.7931 21.6749C32.7235 21.7049 32.6604 21.7483 32.6075 21.8027C32.5546 21.8571 32.5129 21.9214 32.4848 21.9919C32.4567 22.0624 32.4428 22.1378 32.4438 22.2137C32.4448 22.2896 32.4608 22.3646 32.4907 22.4343L33.6983 25.2475C33.734 25.3307 33.7887 25.4044 33.858 25.4625C33.9274 25.5207 34.0094 25.5617 34.0974 25.5823C34.1855 25.6029 34.2772 25.6025 34.3651 25.5811C34.453 25.5597 34.5346 25.5179 34.6034 25.4591L36.8922 23.5045C36.9499 23.4552 36.9973 23.395 37.0318 23.3274C37.0663 23.2598 37.0872 23.1861 37.0932 23.1104C37.0992 23.0347 37.0902 22.9586 37.0669 22.8863C37.0435 22.8141 37.0061 22.7472 36.9569 22.6894Z" fill="white"/>
</g>
<defs>
<clipPath id="clip0_563_467">
<rect width="36.9544" height="37" fill="white" transform="translate(0.140625)"/>
</clipPath>
</defs>
</svg>
