<svg width="100" height="99" viewBox="0 0 100 99" fill="none" xmlns="http://www.w3.org/2000/svg">
<g clip-path="url(#clip0_563_734)">
<path d="M95.7969 6.89917H4.20312C1.89062 6.89917 0 8.75542 0 11.0603V76.2146C0 78.5195 1.89062 80.3757 4.20312 80.3757H41L35.625 86.7489H32.2188C30.1406 86.7489 26.875 89.1465 26.875 92.101H73.1406C73.1406 89.1465 69.875 86.7489 67.7969 86.7489H64.3906L59 80.3757H95.7969C98.125 80.3757 100 78.5195 100 76.2146V11.0603C100 8.75542 98.125 6.89917 95.7969 6.89917ZM96 76.2146H4V8.90999H96V76.2146Z" fill="#1E3A8A"/>
<path d="M28.0469 42.2761H15.9688C16.1406 45.5091 17.4531 48.4636 19.5156 50.7375L28.0469 42.2761ZM29.1562 27.6736C22.0469 28.0603 16.3594 33.6909 15.9688 40.7292H29.1562V27.6736Z" fill="#1E3A8A"/>
<path d="M29.938 55.3627C37.2817 55.3627 43.3286 49.7166 43.8755 42.5855H53.1411V56.1362C53.1411 56.7395 53.6255 57.219 54.2349 57.219H73.1255V62.6021C73.1255 63.0352 73.4692 63.3755 73.9067 63.3755H84.438C84.8755 63.3755 85.2192 63.0352 85.2192 62.6021V49.6548C85.2192 49.2216 84.8755 48.8813 84.438 48.8813H73.9067C73.4692 48.8813 73.1255 49.2216 73.1255 49.6548V55.0379H55.3442V26.7146H61.5786V32.0977C61.5786 32.5309 61.9224 32.8712 62.3599 32.8712H72.8911C73.3286 32.8712 73.6724 32.5309 73.6724 32.0977V19.1504C73.6724 18.7173 73.3286 18.377 72.8911 18.377H62.3599C61.9224 18.377 61.5786 18.7173 61.5786 19.1504V24.5335H54.2505C53.6411 24.5335 53.1567 25.013 53.1567 25.6163V40.4045H43.8911C43.3442 33.5209 37.7192 28.0449 30.7192 27.6582V41.4873C30.7192 41.6884 30.6411 41.8895 30.4849 42.0441L20.6099 51.8049C23.0942 54.017 26.3599 55.3627 29.938 55.3627ZM76.3599 51.9596H82.0317C82.4692 51.9596 82.813 52.2999 82.813 52.733C82.813 53.1662 82.4692 53.5065 82.0317 53.5065H76.3599C75.9224 53.5065 75.5786 53.1662 75.5786 52.733C75.5786 52.2999 75.9224 51.9596 76.3599 51.9596ZM76.3599 55.3627H82.0317C82.4692 55.3627 82.813 55.703 82.813 56.1362C82.813 56.5693 82.4692 56.9096 82.0317 56.9096H76.3599C75.9224 56.9096 75.5786 56.5693 75.5786 56.1362C75.5786 55.7185 75.9224 55.3627 76.3599 55.3627ZM76.3599 58.7659H82.0317C82.4692 58.7659 82.813 59.1062 82.813 59.5393C82.813 59.9724 82.4692 60.3127 82.0317 60.3127H76.3599C75.9224 60.3127 75.5786 59.9724 75.5786 59.5393C75.5786 59.1216 75.9224 58.7659 76.3599 58.7659ZM64.7974 21.4552H70.4692C70.9067 21.4552 71.2505 21.7955 71.2505 22.2287C71.2505 22.6618 70.9067 23.0021 70.4692 23.0021H64.7974C64.3599 23.0021 64.0161 22.6618 64.0161 22.2287C64.0161 21.7955 64.3599 21.4552 64.7974 21.4552ZM64.7974 24.8584H70.4692C70.9067 24.8584 71.2505 25.1987 71.2505 25.6318C71.2505 26.0649 70.9067 26.4052 70.4692 26.4052H64.7974C64.3599 26.4052 64.0161 26.0649 64.0161 25.6318C64.0161 25.1987 64.3599 24.8584 64.7974 24.8584ZM64.7974 28.2615H70.4692C70.9067 28.2615 71.2505 28.6018 71.2505 29.0349C71.2505 29.468 70.9067 29.8084 70.4692 29.8084H64.7974C64.3599 29.8084 64.0161 29.468 64.0161 29.0349C64.0161 28.6018 64.3599 28.2615 64.7974 28.2615Z" fill="#1E3A8A"/>
</g>
<defs>
<clipPath id="clip0_563_734">
<rect width="100" height="99" fill="white"/>
</clipPath>
</defs>
</svg>
