<svg width="99" height="99" viewBox="0 0 99 99" fill="none" xmlns="http://www.w3.org/2000/svg">
<path d="M46.3846 40.166C46.1299 40.1661 45.8792 40.2286 45.6547 40.3488C45.4302 40.469 45.2389 40.643 45.0977 40.8549L42.4631 44.8067H38.6505C38.3959 44.8067 38.1453 44.8693 37.9209 44.9895C37.6964 45.1096 37.5049 45.2837 37.3636 45.4955L34.27 50.1362C34.1 50.3906 34.0093 50.6897 34.0093 50.9957C34.0093 51.3018 34.1 51.6008 34.27 51.8553L36.7926 55.6349L34.27 59.4175C34.1 59.6719 34.0093 59.971 34.0093 60.277C34.0093 60.5831 34.1 60.8822 34.27 61.1366L37.3636 65.7773C37.5052 65.9885 37.6968 66.1614 37.9212 66.281C38.1457 66.4007 38.3962 66.4634 38.6505 66.4631H42.4631L45.0977 70.4179C45.2393 70.6292 45.4308 70.8021 45.6553 70.9217C45.8798 71.0413 46.1302 71.104 46.3846 71.1037H52.5717C52.8261 71.104 53.0765 71.0413 53.301 70.9217C53.5254 70.8021 53.717 70.6292 53.8586 70.4179L56.4931 66.4631H60.3058C60.5601 66.4634 60.8106 66.4007 61.035 66.281C61.2595 66.1614 61.451 65.9885 61.5926 65.7773L64.6862 61.1366C64.8563 60.8822 64.947 60.5831 64.947 60.277C64.947 59.971 64.8563 59.6719 64.6862 59.4175L62.1637 55.6349L64.6862 51.8553C64.8563 51.6008 64.947 51.3018 64.947 50.9957C64.947 50.6897 64.8563 50.3906 64.6862 50.1362L61.5926 45.4955C61.4514 45.2837 61.2599 45.1096 61.0354 44.9895C60.8109 44.8693 60.5604 44.8067 60.3058 44.8067H56.4931L53.8586 40.8549C53.7173 40.643 53.526 40.469 53.3015 40.3488C53.0771 40.2286 52.8263 40.1661 52.5717 40.166H46.3846ZM47.2124 43.2598H51.7439L54.3784 47.2146C54.52 47.4259 54.7116 47.5988 54.936 47.7184C55.1605 47.838 55.4109 47.9008 55.6653 47.9004H59.4778L61.5413 50.9942L59.0187 54.7768C58.8487 55.0313 58.7579 55.3304 58.7579 55.6364C58.7579 55.9424 58.8487 56.2415 59.0187 56.4959L61.5413 60.2755L59.4778 63.3693H55.6653C55.4107 63.3693 55.16 63.4319 54.9355 63.5521C54.711 63.6723 54.5197 63.8463 54.3784 64.0582L51.7439 68.01H47.2124L44.5778 64.0582C44.4366 63.8463 44.2453 63.6723 44.0208 63.5521C43.7963 63.4319 43.5456 63.3693 43.291 63.3693H39.4785L37.418 60.2786L39.9376 56.4959C40.1076 56.2415 40.1983 55.9424 40.1983 55.6364C40.1983 55.3304 40.1076 55.0313 39.9376 54.7768L37.415 50.9942L39.4785 47.9004H43.291C43.5453 47.9008 43.7957 47.838 44.0202 47.7184C44.2447 47.5988 44.4362 47.4259 44.5778 47.2146L47.2124 43.2598Z" fill="#1E3A8A"/>
<path d="M49.4781 49.4471C46.0791 49.4471 43.2905 52.2357 43.2905 55.6347C43.2905 59.0337 46.0791 61.8222 49.4781 61.8222C52.877 61.8222 55.6656 59.0337 55.6656 55.6347C55.6656 52.2357 52.877 49.4471 49.4781 49.4471ZM49.4781 52.5409C51.205 52.5409 52.5718 53.9077 52.5718 55.6347C52.5718 57.3616 51.205 58.7285 49.4781 58.7285C47.7511 58.7285 46.3843 57.3616 46.3843 55.6347C46.3843 53.9077 47.7511 52.5409 49.4781 52.5409Z" fill="#1E3A8A"/>
<path d="M49.4782 27.7908C34.1187 27.7908 21.6343 40.2752 21.6343 55.6347C21.6343 70.9942 34.1187 83.4787 49.4782 83.4787C64.8377 83.4787 77.3222 70.9942 77.3222 55.6347C77.3222 40.2752 64.8377 27.7908 49.4782 27.7908ZM49.4782 30.8846C63.1657 30.8846 74.2284 41.9473 74.2284 55.6347C74.2284 69.3222 63.1657 80.3849 49.4782 80.3849C35.7908 80.3849 24.728 69.3222 24.728 55.6347C24.728 41.9473 35.7908 30.8846 49.4782 30.8846ZM43.2907 9.22815C41.6035 9.22815 40.1969 10.635 40.1969 12.3227V15.4146C40.1969 17.1024 41.6035 18.5095 43.2907 18.5095H55.6658C57.353 18.5095 58.7595 17.1024 58.7595 15.4146V12.3227C58.7595 10.635 57.353 9.22815 55.6658 9.22815H43.2907ZM43.2907 12.3197H55.6658V15.4115H43.2907V12.3197Z" fill="#1E3A8A"/>
<path d="M47.9316 16.9628V23.1503H51.0254V16.9628H47.9316Z" fill="#1E3A8A"/>
<path d="M49.4783 21.6034C30.7016 21.6034 15.4468 36.8582 15.4468 55.6349C15.4468 74.4116 30.7016 89.6664 49.4783 89.6664C68.255 89.6664 83.5098 74.4116 83.5098 55.6349C83.5098 36.8582 68.255 21.6034 49.4783 21.6034ZM49.4783 24.6972C66.583 24.6972 80.416 38.53 80.416 55.6349C80.416 72.7396 66.583 86.5726 49.4783 86.5726C32.3736 86.5726 18.5406 72.7396 18.5406 55.6349C18.5406 38.53 32.3736 24.6972 49.4783 24.6972ZM86.5668 68.0107C86.2115 68.0206 85.8705 68.1532 85.6015 68.3857C85.3324 68.6183 85.1518 68.9367 85.0901 69.2872C84.8646 70.4701 84.5322 71.6081 84.1046 72.6933C83.2497 74.8637 82.0128 76.8164 80.4914 78.4499C79.7306 79.2665 78.899 80.0033 78.0081 80.6494C77.8356 80.7648 77.688 80.9137 77.5744 81.0875C77.4607 81.2613 77.3833 81.4563 77.3466 81.6608C77.31 81.8652 77.3148 82.0749 77.361 82.2775C77.4072 82.48 77.4937 82.6711 77.6153 82.8394C77.737 83.0077 77.8914 83.1499 78.0691 83.2571C78.2468 83.3643 78.4443 83.4347 78.6497 83.4637C78.8552 83.4927 79.0645 83.4797 79.2649 83.4259C79.4654 83.3722 79.6529 83.2786 79.8163 83.1506C80.8713 82.3854 81.8544 81.5154 82.7485 80.5557C84.5368 78.6357 85.9778 76.3555 86.9737 73.8278C87.4715 72.564 87.857 71.2393 88.1188 69.8661C88.1656 69.6382 88.1603 69.4025 88.1035 69.1769C88.0466 68.9513 87.9396 68.7416 87.7904 68.5632C87.6412 68.3848 87.4535 68.2423 87.2416 68.1467C87.0298 68.051 86.7991 68.0046 86.5668 68.0107ZM94.2957 64.9166C93.9391 64.9265 93.5971 65.0594 93.327 65.2923C93.057 65.5253 92.8757 65.8442 92.8138 66.1953C92.3425 68.6644 91.6459 71.0436 90.751 73.3108C88.9611 77.8451 86.3735 81.9264 83.1809 85.3478C81.5845 87.0582 79.8373 88.6014 77.9637 89.9575C77.7989 90.0766 77.6591 90.2271 77.5525 90.4001C77.4458 90.5732 77.3742 90.7655 77.3419 90.9662C77.3096 91.167 77.3172 91.372 77.3642 91.5697C77.4112 91.7675 77.4967 91.9541 77.6159 92.1189C77.7351 92.2836 77.8855 92.4235 78.0587 92.5301C78.2319 92.6368 78.4244 92.7082 78.6252 92.7405C78.826 92.7728 79.0312 92.7652 79.2291 92.7182C79.427 92.6712 79.6137 92.5858 79.7786 92.4667C81.8167 90.9913 83.7127 89.3114 85.4432 87.4574C88.9039 83.7491 91.6992 79.34 93.6305 74.4475C94.5959 72.0014 95.3455 69.4355 95.8534 66.7758C95.9004 66.5474 95.8951 66.3115 95.8381 66.0854C95.781 65.8594 95.6736 65.649 95.5239 65.4702C95.3741 65.2915 95.1859 65.1487 94.9732 65.0529C94.7606 64.957 94.5289 64.9104 94.2957 64.9166ZM20.1339 27.7909C19.7854 27.7814 19.4438 27.8898 19.1647 28.0983C18.1079 28.8625 17.1231 29.7312 16.2273 30.6894C14.4358 32.6067 12.9922 34.8834 11.9945 37.4076C11.4958 38.6695 11.1095 39.9922 10.8473 41.3636C10.7996 41.5661 10.7933 41.7764 10.829 41.9814C10.8648 42.1864 10.9418 42.382 11.0552 42.5566C11.1687 42.7311 11.3165 42.8808 11.4896 42.9969C11.6626 43.113 11.8573 43.1932 12.0621 43.2322C12.2669 43.2713 12.4775 43.2686 12.6813 43.2243C12.885 43.18 13.0776 43.0948 13.2476 42.9743C13.4175 42.8537 13.5614 42.7004 13.6703 42.523C13.7793 42.3455 13.8512 42.148 13.8816 41.9421C14.1075 40.7608 14.4403 39.6243 14.8686 38.5406C15.7253 36.3734 16.9643 34.4233 18.4885 32.7922C19.2506 31.9769 20.0837 31.2414 20.9761 30.5962C21.242 30.4101 21.4426 30.1452 21.549 29.839C21.6555 29.5328 21.6625 29.2007 21.5692 28.8903C21.476 28.5798 21.2872 28.3066 21.0296 28.1093C20.7719 27.912 20.4586 27.8005 20.1339 27.7909ZM20.1339 18.5096C19.7855 18.4991 19.4437 18.6066 19.1639 18.8148C17.1273 20.2903 15.2324 21.9697 13.5034 23.8236C10.0455 27.5318 7.25218 31.9408 5.32259 36.8332C4.3578 39.2791 3.60874 41.8452 3.10121 44.5049C3.06156 44.7052 3.062 44.9113 3.10234 45.1114C3.14268 45.3116 3.22216 45.5019 3.3363 45.6711C3.45044 45.8404 3.59699 45.9855 3.7674 46.0979C3.93781 46.2103 4.12884 46.2877 4.32935 46.326C4.52987 46.3643 4.73586 46.3624 4.93568 46.3207C5.13551 46.279 5.32522 46.1981 5.49367 46.0828C5.66212 45.9674 5.80601 45.8201 5.91722 45.6488C6.02842 45.4776 6.10466 45.2862 6.14154 45.0854C6.61257 42.6161 7.30836 40.2367 8.20261 37.9696C9.99112 33.4353 12.5768 29.3549 15.7671 25.9336C17.3621 24.2232 19.1081 22.677 20.9801 21.3209C21.245 21.1337 21.4444 20.8681 21.5502 20.5614C21.6559 20.2548 21.6626 19.9227 21.5694 19.612C21.4762 19.3013 21.2878 19.0276 21.0307 18.8299C20.7736 18.6321 20.4609 18.52 20.1368 18.5096H20.1339Z" fill="#1E3A8A"/>
<path d="M75.7762 24.697C75.4681 24.6965 75.167 24.788 74.9113 24.9599C74.6557 25.1318 74.4572 25.376 74.3414 25.6616C74.2256 25.9471 74.1977 26.2611 74.2614 26.5627C74.325 26.8642 74.4774 27.1395 74.6987 27.3538L77.7587 30.4125C77.9012 30.5601 78.0719 30.6778 78.2604 30.7588C78.4489 30.8398 78.6516 30.8824 78.8567 30.8842C79.0619 30.8859 79.2654 30.8467 79.4553 30.769C79.6452 30.6913 79.8176 30.5765 79.9627 30.4314C80.1077 30.2862 80.2224 30.1138 80.3001 29.9238C80.3778 29.7338 80.4169 29.5301 80.4151 29.3248C80.4134 29.1196 80.3709 28.9168 80.2899 28.7281C80.209 28.5395 80.0913 28.3689 79.9438 28.2262L76.8834 25.168C76.7397 25.0193 76.5678 24.901 76.3776 24.8201C76.1874 24.7392 75.9828 24.6974 75.7762 24.697Z" fill="#1E3A8A"/>
</svg>
