<svg width="100" height="99" viewBox="0 0 100 99" fill="none" xmlns="http://www.w3.org/2000/svg">
<path fill-rule="evenodd" clip-rule="evenodd" d="M67.5656 0C64.7906 0 62.5 2.25844 62.5 5.01188V16.4711C62.5 19.2184 64.7906 21.4737 67.5656 21.4737H70.4156V26.8476C70.4169 27.1509 70.5082 27.4472 70.6782 27.6996C70.8482 27.952 71.0894 28.1493 71.3718 28.267C71.6543 28.3847 71.9654 28.4176 72.2666 28.3616C72.5677 28.3056 72.8456 28.1632 73.0656 27.952L79.7844 21.4737H91.8156C94.5906 21.4737 96.875 19.2184 96.875 16.4711V5.01188C96.875 2.26153 94.5938 0 91.8125 0H67.5656ZM67.5656 3.09375H91.8156C92.9188 3.09375 93.75 3.92597 93.75 5.01188V16.4711C93.75 17.5539 92.9187 18.38 91.8125 18.38H79.15C78.7431 18.3816 78.353 18.5404 78.0625 18.8224L73.5406 23.1784V19.9299C73.5406 19.5197 73.376 19.1262 73.083 18.8361C72.79 18.546 72.3925 18.3831 71.9781 18.3831H67.5656C67.3097 18.389 67.0552 18.3435 66.8175 18.2494C66.5797 18.1554 66.3637 18.0146 66.1824 17.8357C66.001 17.6568 65.8582 17.4433 65.7624 17.2083C65.6666 16.9732 65.6199 16.7214 65.625 16.468V5.01188C65.625 3.92906 66.4625 3.09684 67.5656 3.09684V3.09375ZM73.4375 9.28125C73.232 9.28125 73.0286 9.32128 72.8388 9.39906C72.6491 9.47683 72.4767 9.59083 72.3315 9.73451C72.1864 9.87819 72.0714 10.0487 71.993 10.2364C71.9147 10.4241 71.8746 10.6251 71.875 10.8281C71.8758 11.237 72.0408 11.6289 72.3338 11.9177C72.6267 12.2066 73.0236 12.3688 73.4375 12.3688C73.8514 12.3688 74.2483 12.2066 74.5412 11.9177C74.8342 11.6289 74.9992 11.237 75 10.8281C75.0004 10.6251 74.9603 10.4241 74.882 10.2364C74.8036 10.0487 74.6886 9.87819 74.5435 9.73451C74.3983 9.59083 74.2259 9.47683 74.0362 9.39906C73.8464 9.32128 73.643 9.28125 73.4375 9.28125ZM79.6875 9.28125C79.482 9.28125 79.2786 9.32128 79.0888 9.39906C78.8991 9.47683 78.7267 9.59083 78.5815 9.73451C78.4364 9.87819 78.3214 10.0487 78.243 10.2364C78.1647 10.4241 78.1246 10.6251 78.125 10.8281C78.1258 11.237 78.2908 11.6289 78.5838 11.9177C78.8767 12.2066 79.2736 12.3688 79.6875 12.3688C80.1014 12.3688 80.4983 12.2066 80.7912 11.9177C81.0842 11.6289 81.2492 11.237 81.25 10.8281C81.2504 10.6251 81.2103 10.4241 81.132 10.2364C81.0536 10.0487 80.9386 9.87819 80.7935 9.73451C80.6483 9.59083 80.4759 9.47683 80.2862 9.39906C80.0964 9.32128 79.893 9.28125 79.6875 9.28125ZM85.9375 9.28125C85.732 9.28125 85.5286 9.32128 85.3388 9.39906C85.1491 9.47683 84.9767 9.59083 84.8315 9.73451C84.6864 9.87819 84.5714 10.0487 84.493 10.2364C84.4147 10.4241 84.3746 10.6251 84.375 10.8281C84.3758 11.237 84.5408 11.6289 84.8338 11.9177C85.1267 12.2066 85.5236 12.3688 85.9375 12.3688C86.3514 12.3688 86.7483 12.2066 87.0412 11.9177C87.3342 11.6289 87.4992 11.237 87.5 10.8281C87.5004 10.6251 87.4603 10.4241 87.382 10.2364C87.3036 10.0487 87.1886 9.87819 87.0435 9.73451C86.8983 9.59083 86.7259 9.47683 86.5362 9.39906C86.3464 9.32128 86.143 9.28125 85.9375 9.28125ZM49.9156 17.0651C42.6281 17.0651 36.7 22.9804 36.7 30.2259C36.7 34.3035 38.6219 37.9108 41.5656 40.327L41.2281 40.3456H14.1906C11.5531 40.3456 9.375 42.4865 9.375 45.0945V86.625H4.6875C4.2731 86.625 3.87567 86.788 3.58265 87.0781C3.28962 87.3682 3.125 87.7616 3.125 88.1719C3.125 94.1273 7.9375 99 13.8844 99H86.1156C92.0625 99 96.875 94.1273 96.875 88.1719C96.875 87.7616 96.7104 87.3682 96.4174 87.0781C96.1243 86.788 95.7269 86.625 95.3125 86.625H90.625V45.0945C90.625 42.4865 88.4469 40.3456 85.8094 40.3456H58.6969C58.5563 40.3332 58.4125 40.3363 58.2687 40.327C61.2125 37.9139 63.1281 34.3004 63.1281 30.2259C63.1281 22.9804 57.2 17.0651 49.9156 17.0651ZM49.9156 20.1589C51.2462 20.1617 52.5632 20.4246 53.7909 20.9326C55.0186 21.4405 56.1329 22.1835 57.0699 23.1188C58.0068 24.0542 58.748 25.1635 59.2508 26.3831C59.7536 27.6027 60.0082 28.9087 60 30.2259C60.0138 32.8429 58.9895 35.3606 57.1474 37.2375C55.3053 39.1144 52.7927 40.2005 50.15 40.2621H49.6719C47.0292 40.2005 44.5165 39.1144 42.6744 37.2375C40.8324 35.3606 39.808 32.8429 39.8219 30.2259C39.8136 28.9081 40.0685 27.6017 40.5717 26.3817C41.0749 25.1617 41.8166 24.0521 42.7542 23.1166C43.6918 22.1812 44.8069 21.4384 46.0353 20.9308C47.2638 20.4232 48.5845 20.1609 49.9156 20.1589ZM42.9469 43.3558H46.825L45.275 61.7482C45.2571 61.9727 45.2889 62.1984 45.3683 62.4094C45.4476 62.6205 45.5726 62.8119 45.7344 62.9702L48.8594 66.0639C49.1524 66.3539 49.5497 66.5168 49.9641 66.5168C50.3784 66.5168 50.7757 66.3539 51.0687 66.0639L54.1937 62.9702C54.3539 62.8111 54.4771 62.6193 54.5548 62.4083C54.6325 62.1972 54.6629 61.972 54.6437 61.7482L53.0938 43.3558H56.9812C65.2125 43.3558 71.7938 49.9146 71.7938 58.1285V68.0068H65.5625V59.0535C65.5659 58.8465 65.5272 58.6408 65.4488 58.4489C65.3704 58.2569 65.2539 58.0824 65.1061 57.9359C64.9584 57.7893 64.7824 57.6736 64.5886 57.5956C64.3949 57.5176 64.1873 57.479 63.9781 57.4819C63.7727 57.4847 63.5698 57.5276 63.3811 57.6082C63.1924 57.6887 63.0216 57.8053 62.8785 57.9513C62.7354 58.0973 62.6228 58.2698 62.5471 58.4589C62.4714 58.648 62.4342 58.8501 62.4375 59.0535V68.0068H37.4813V59.0535C37.4846 58.8467 37.446 58.6414 37.3679 58.4496C37.2897 58.2578 37.1734 58.0835 37.026 57.937C36.8786 57.7905 36.703 57.6747 36.5096 57.5965C36.3162 57.5184 36.1089 57.4794 35.9 57.4819C35.6943 57.4843 35.4911 57.5269 35.302 57.6073C35.113 57.6877 34.9418 57.8042 34.7984 57.9502C34.6549 58.0963 34.542 58.2689 34.4662 58.4582C34.3903 58.6475 34.3529 58.8498 34.3563 59.0535V68.0068H28.125V58.1316C28.125 49.9146 34.7156 43.3589 42.9437 43.3589L42.9469 43.3558ZM49.9562 43.3775C49.9579 43.3981 49.96 43.4188 49.9625 43.4393L51.4719 61.2841L49.9625 62.7753L48.4562 61.2841L49.9562 43.4393C49.9567 43.4187 49.9567 43.3981 49.9562 43.3775ZM14.1906 43.4393H32.7406C31.5094 44.287 30.3969 45.2863 29.4187 46.4062H17.1875C16.7731 46.4062 16.3757 46.5692 16.0826 46.8593C15.7896 47.1494 15.625 47.5429 15.625 47.9531V81.9844C15.625 82.3946 15.7896 82.7881 16.0826 83.0782C16.3757 83.3683 16.7731 83.5312 17.1875 83.5312H82.8125C83.2269 83.5312 83.6243 83.3683 83.9174 83.0782C84.2104 82.7881 84.375 82.3946 84.375 81.9844V47.9531C84.375 47.5429 84.2104 47.1494 83.9174 46.8593C83.6243 46.5692 83.2269 46.4062 82.8125 46.4062H70.5C69.5243 45.2852 68.4116 44.2886 67.1875 43.4393H85.8094C86.7781 43.4393 87.5 44.1571 87.5 45.0945V86.625H12.5V45.0945C12.5 44.1571 13.2188 43.4393 14.1906 43.4393ZM18.75 49.5H27.2344C25.7658 52.1444 24.9972 55.1138 25 58.1316V69.5537C25 69.9639 25.1646 70.3574 25.4576 70.6475C25.7507 70.9376 26.1481 71.1006 26.5625 71.1006H35.5031C35.7732 71.1737 36.0581 71.1737 36.3281 71.1006H63.5875C63.8565 71.1732 64.1403 71.1732 64.4094 71.1006H73.3594C73.7738 71.1006 74.1712 70.9376 74.4642 70.6475C74.7573 70.3574 74.9219 69.9639 74.9219 69.5537V58.1316C74.9219 55.0038 74.1094 52.0616 72.6937 49.5031H81.25V80.4406H18.75V49.5ZM6.87812 89.7188H40.1125V90.585C40.1125 92.729 41.8781 94.5419 44.0562 94.5419H55.9438C58.1219 94.5419 59.8875 92.729 59.8875 90.5819V89.7188H93.125C92.3438 93.1714 89.7625 95.9062 86.1188 95.9062H13.8844C10.2406 95.9062 7.65625 93.1714 6.87812 89.7188ZM43.2375 89.7188H56.7625V90.585C56.7625 91.1109 56.4031 91.4482 55.9438 91.4482H44.0562C43.5969 91.4482 43.2375 91.1078 43.2375 90.5819V89.7188Z" fill="#1E3A8A"/>
</svg>
