<svg width="40" height="40" viewBox="0 0 40 40" fill="none" xmlns="http://www.w3.org/2000/svg">
<g clip-path="url(#clip0_563_761)">
<path d="M34.9761 20.3984C36.1828 19.5852 37.0138 17.9856 37.0138 16.5453C37.0138 14.5101 35.365 12.8629 33.3321 12.8629C33.1051 12.8629 32.8876 12.8896 32.6734 12.93C32.6746 12.93 32.6759 12.9283 32.6771 12.9283C31.8378 11.5688 30.2518 10.2699 28.3105 9.77905C29.5171 8.96587 30.3471 7.36646 30.3471 5.92597C30.3471 3.89078 28.6994 2.24353 26.6662 2.24353C24.6334 2.24353 22.9846 3.89175 22.9846 5.92597C22.9846 7.36626 23.8155 8.96587 25.0211 9.77905C23.0796 10.2701 21.4954 11.5688 20.6543 12.9283C20.4398 12.8908 20.2233 12.8629 19.9993 12.8629C19.7752 12.8629 19.5589 12.8896 19.3443 12.9283C18.5044 11.5688 16.9196 10.2699 14.9777 9.77905C16.1843 8.96587 17.0143 7.36646 17.0143 5.92597C17.0143 3.89078 15.3659 2.24353 13.333 2.24353C11.3002 2.24353 9.65174 3.89175 9.65174 5.92597C9.65174 7.36626 10.4821 8.96587 11.6883 9.77905C9.74682 10.2701 8.16264 11.5688 7.32154 12.9283C7.32271 12.9283 7.32388 12.93 7.32505 12.93C7.11107 12.8908 6.89298 12.8629 6.6665 12.8629C4.63346 12.8629 2.98523 14.5113 2.98523 16.5453C2.98523 17.9856 3.81559 19.5852 5.02238 20.3984C2.1375 21.1296 0 23.6332 0 25.4903C0 26.5852 3.33296 27.1356 6.66709 27.1356L4.8 25.2667L6.37286 21.466H6.34963L5.73969 20.7658C6.03568 20.8728 6.34358 20.9371 6.66221 20.9371C6.98143 20.9371 7.28932 20.8728 7.58296 20.7682L6.9742 21.466H6.95702L8.52988 25.2667L6.66221 27.1356C7.69718 27.1356 8.73079 27.0823 9.66716 26.9765C9.66716 26.9739 9.66833 26.9718 9.66833 26.9694C9.66482 27.0372 9.64764 27.0989 9.64764 27.1666C9.64764 28.6065 10.478 30.2054 11.6842 31.0185C8.80068 31.7497 6.6624 34.2533 6.6624 36.1091C6.6624 37.2077 9.99595 37.7567 13.3301 37.7567L11.463 35.8878L13.0358 32.0859H13.0175L12.4076 31.387C12.703 31.4914 13.0116 31.5582 13.3303 31.5582C13.6495 31.5582 13.9574 31.4939 14.2504 31.387L13.6417 32.0859H13.6251L15.1979 35.8878L13.3301 37.7567C16.6636 37.7567 19.9979 37.2077 19.9979 36.1091C19.9979 34.2545 17.8605 31.7497 14.9762 31.0185C16.1829 30.2054 17.0127 28.6065 17.0127 27.1666C17.0127 25.1314 15.3645 23.4838 13.3314 23.4838C13.1061 23.4838 12.8898 23.51 12.6764 23.5504C11.8365 22.1903 10.2517 20.8896 8.30965 20.3998C9.51644 19.5866 10.3468 17.9872 10.3468 16.5467C10.3468 16.4815 10.3306 16.4202 10.3271 16.3571V16.3583C11.2621 16.4629 12.2963 16.5164 13.3312 16.5164L11.4642 14.6476L13.037 10.8468H13.0185L12.4074 10.1461C12.7028 10.2519 13.0114 10.3179 13.3301 10.3179C13.6493 10.3179 13.9572 10.2531 14.2502 10.1473L13.6415 10.8457H13.6249L15.1978 14.6464L13.3301 16.5153C14.3649 16.5153 15.3998 16.462 16.3348 16.3571C16.3307 16.4213 16.3151 16.4815 16.3151 16.5455C16.3151 17.9858 17.1455 19.5854 18.3517 20.3986C16.9167 20.7612 15.6683 21.565 14.7751 22.5064C16.7425 23.1201 18.184 24.921 18.2215 27.0788C18.8009 27.1145 19.3984 27.1346 19.9976 27.1346L18.1299 25.2658L19.7027 21.465H19.685L19.075 20.766C19.3704 20.8705 19.6783 20.9373 19.9976 20.9373C20.3168 20.9373 20.6247 20.873 20.9177 20.766L20.309 21.465H20.2924L21.8652 25.2658L19.9964 27.1358C20.5956 27.1358 21.193 27.1166 21.7727 27.0813C21.8106 24.9247 23.2514 23.1201 25.2191 22.5088C24.3262 21.5661 23.0755 20.7614 21.6425 20.3998C22.8487 19.5866 23.6796 17.9872 23.6796 16.5467C23.6796 16.4815 23.663 16.4213 23.6593 16.3583C24.5949 16.4629 25.6293 16.5164 26.6637 16.5164L24.797 14.6476L26.3687 10.8468H26.3521L25.741 10.1461C26.0371 10.2519 26.345 10.3179 26.6637 10.3179C26.9823 10.3179 27.2914 10.2531 27.5838 10.1473L26.9751 10.8457H26.9585L28.5325 14.6464L26.6637 16.5153C27.6992 16.5153 28.7334 16.462 29.6692 16.3571V16.3559C29.6645 16.4202 29.6501 16.4815 29.6501 16.5455C29.6501 17.9858 30.4799 19.5854 31.6855 20.3986C29.744 20.8896 28.1604 22.1878 27.3201 23.549C27.1059 23.51 26.8884 23.4824 26.6639 23.4824C24.6308 23.4824 22.983 25.1314 22.983 27.1643C22.983 28.6052 23.813 30.2054 25.0195 31.0185C22.1343 31.7497 19.9966 34.2533 19.9966 36.1091C19.9966 37.2077 23.3301 37.7567 26.6637 37.7567L24.797 35.8878L26.3687 32.0859H26.3521L25.741 31.387C26.0371 31.4914 26.345 31.5582 26.6637 31.5582C26.9823 31.5582 27.2914 31.4939 27.5838 31.387L26.9751 32.0859H26.9585L28.5325 35.8878L26.6637 37.7567C29.9972 37.7567 33.3319 37.2077 33.3319 36.1091C33.3319 34.2545 31.1942 31.7497 28.3101 31.0185C29.5167 30.2054 30.3467 28.6065 30.3467 27.1666C30.3467 27.0989 30.3299 27.0372 30.3252 26.9694C30.3252 26.9718 30.3278 26.9739 30.3278 26.9765C31.2634 27.0823 32.2966 27.1356 33.3321 27.1356L31.4645 25.2667L33.0373 21.466H33.0195L32.4084 20.7658C32.7056 20.8728 33.0123 20.9371 33.3321 20.9371C33.6508 20.9371 33.9587 20.8728 34.2523 20.7682L33.6435 21.466H33.6258L35.1998 25.2667L33.3321 27.1356C36.6643 27.1356 40.0004 26.5866 40.0004 25.4903C39.9978 23.6345 37.8604 21.1296 34.9761 20.3984ZM4.23224 25.0336L4.07663 25.4095L4.36442 25.6972L5.15553 26.4878C2.23863 26.3392 0.735278 25.7781 0.60349 25.4905C0.60349 23.9165 2.5395 21.6683 5.13484 20.9978L5.28107 21.1653L5.65613 21.5956L4.23224 25.0336ZM10.8987 35.6524L10.7431 36.0292L11.0301 36.3172L11.822 37.1101C8.90514 36.9603 7.4012 36.3992 7.26999 36.1091C7.26999 34.5374 9.206 32.2882 11.8011 31.6177L11.9474 31.7864L12.3219 32.2167L10.8987 35.6524ZM19.3913 36.0852C19.2564 36.3943 17.7513 36.9601 14.8362 37.1075L15.6273 36.317L15.9145 36.029L15.7587 35.6522L14.3356 32.2142L14.7077 31.7862L14.8551 31.6162C17.4524 32.288 19.3878 34.5374 19.3913 36.0852ZM16.4026 27.1664C16.4026 28.415 15.6601 29.8246 14.6353 30.5142L14.3588 30.6997L14.0419 30.8137C13.7963 30.9018 13.5562 30.9471 13.3285 30.9471C13.1009 30.9471 12.866 30.903 12.6104 30.8116L12.3002 30.7011L12.0225 30.5144C10.9971 29.8248 10.2546 28.415 10.2546 27.1666C10.2546 25.4704 11.6336 24.0924 13.3273 24.0924C15.0213 24.092 16.4026 25.47 16.4026 27.1664ZM12.0764 23.7165C12.0811 23.714 12.0848 23.714 12.0895 23.7118C10.9198 24.1326 10.025 25.1182 9.74506 26.3511C9.27141 26.4081 8.75656 26.4581 8.16869 26.4878L8.96 25.6972L9.247 25.4095L9.0914 25.0336L7.66829 21.5933L8.041 21.1653L8.18782 20.9964C9.89481 21.4386 11.3005 22.5584 12.0764 23.7165ZM7.96779 19.8931L7.69132 20.0792L7.37445 20.1926C7.12903 20.2813 6.88888 20.3266 6.66123 20.3266C6.43358 20.3266 6.19871 20.2824 5.94314 20.1916L5.6329 20.0806L5.35527 19.8933C4.32986 19.2043 3.58736 17.7945 3.58736 16.5455C3.58736 14.8497 4.96635 13.4718 6.65987 13.4718C8.35339 13.4718 9.73257 14.8508 9.73257 16.5455C9.73491 17.7955 8.99261 19.2041 7.96779 19.8931ZM10.8987 14.4123L10.7431 14.7887L11.0301 15.0757L11.822 15.868C11.2336 15.8389 10.7199 15.7878 10.2457 15.7308C9.96803 14.5051 9.08066 13.5224 7.91897 13.0976C8.69408 11.9361 10.0981 10.8162 11.8 10.3769L11.9462 10.5446L12.3207 10.9761L10.8987 14.4123ZM14.0421 9.57327C13.7965 9.66249 13.5564 9.70759 13.3287 9.70759C13.1011 9.70759 12.8662 9.66347 12.6106 9.5721L12.3004 9.46159L12.0227 9.27377C10.9973 8.58496 10.2548 7.17551 10.2548 5.92597C10.2548 4.23069 11.6338 2.8521 13.3275 2.8521C15.0213 2.8519 16.4002 4.23167 16.4002 5.92578C16.4002 7.17532 15.6577 8.58476 14.6329 9.27357L14.3565 9.46022L14.0421 9.57327ZM14.8364 15.868L15.6275 15.0769L15.9147 14.7897L15.7589 14.4135L14.3358 10.9747L14.7079 10.5462L14.8553 10.3767C16.5613 10.816 17.9684 11.9388 18.7429 13.095C17.5791 13.5201 16.6892 14.5025 16.4116 15.7296C15.9389 15.788 15.424 15.8378 14.8364 15.868ZM24.2337 14.4123L24.0767 14.7887L24.3645 15.0757L25.1562 15.868C24.5678 15.8389 24.0541 15.7878 23.5798 15.7308C23.3016 14.5051 22.4148 13.5224 21.2533 13.0976C22.0285 11.9361 23.4324 10.8162 25.1349 10.3769L25.28 10.5446L25.6556 10.9761L24.2337 14.4123ZM27.3769 9.57327C27.1295 9.66249 26.8907 9.70759 26.6637 9.70759C26.4354 9.70759 26.2 9.66347 25.9456 9.5721L25.634 9.46159L25.3558 9.27377C24.3309 8.58496 23.589 7.17551 23.589 5.92597C23.589 4.23069 24.968 2.8521 26.6609 2.8521C28.3552 2.8521 29.7342 4.23167 29.7342 5.92597C29.7342 7.17551 28.9909 8.58496 27.9663 9.27377L27.6904 9.46042L27.3769 9.57327ZM28.17 15.868L28.9605 15.0769L29.2483 14.7897L29.0938 14.4135L27.6696 10.9747L28.0429 10.5462L28.1903 10.3767C29.8949 10.816 31.3026 11.9388 32.0765 13.095C32.0824 13.0939 32.0873 13.0927 32.092 13.0915C30.9197 13.5128 30.0257 14.4972 29.7452 15.7296C29.2731 15.788 28.7582 15.8378 28.17 15.868ZM24.2337 35.6524L24.0767 36.0292L24.3645 36.3172L25.1562 37.1101C22.2389 36.9603 20.7356 36.3992 20.6042 36.1091C20.6042 34.5374 22.5398 32.2882 25.1349 31.6177L25.2812 31.7864L25.6556 32.2167L24.2337 35.6524ZM32.7257 36.0852C32.5914 36.3943 31.0863 36.9601 28.17 37.1075L28.9605 36.317L29.2483 36.029L29.0938 35.6522L27.6696 32.2142L28.0429 31.7862L28.1903 31.6162C30.7866 32.288 32.722 34.5374 32.7257 36.0852ZM27.9689 30.5142L27.6932 30.6997L27.3769 30.8137C27.1295 30.9018 26.8907 30.9471 26.6637 30.9471C26.4354 30.9471 26.2 30.903 25.9456 30.8116L25.634 30.7011L25.3558 30.5144C24.3309 29.8248 23.589 28.415 23.589 27.1666C23.589 25.4704 24.968 24.0924 26.6609 24.0924C28.3552 24.0924 29.7342 25.4714 29.7342 27.1666C29.7368 28.4148 28.9937 29.8246 27.9689 30.5142ZM30.9006 25.0336L30.745 25.4095L31.0314 25.6972L31.8233 26.4878C31.236 26.4581 30.7202 26.4081 30.2469 26.3511C29.9687 25.1242 29.0817 24.1433 27.9202 23.7191C28.6967 22.5564 30.0995 21.4388 31.802 20.9978L31.9469 21.1653L32.3227 21.5956L30.9006 25.0336ZM34.044 20.1938C33.798 20.2824 33.559 20.3275 33.3308 20.3275C33.1025 20.3275 32.8684 20.2834 32.6127 20.1926L32.3013 20.0821L32.0242 19.8943C30.9994 19.2055 30.2563 17.7955 30.2563 16.5465C30.2563 14.8506 31.6353 13.4726 33.3294 13.4726C35.0223 13.4726 36.4025 14.8516 36.4025 16.5465C36.4025 17.7955 35.6594 19.2055 34.6334 19.8943L34.3577 20.0804L34.044 20.1938ZM34.8357 26.4876L35.6276 25.6971L35.9154 25.4093L35.7596 25.0334L34.3364 21.5931L34.7086 21.1651L34.856 20.9962C37.4525 21.6669 39.3891 23.9161 39.3914 25.4653C39.2559 25.7744 37.7534 26.339 34.8357 26.4876Z" fill="#FF8125"/>
</g>
<defs>
<clipPath id="clip0_563_761">
<rect width="40" height="40" fill="white"/>
</clipPath>
</defs>
</svg>
