<svg width="38" height="37" viewBox="0 0 38 37" fill="none" xmlns="http://www.w3.org/2000/svg">
<path d="M10.2217 17.7773H7.6233C7.22633 17.7773 6.90154 18.1025 6.90154 18.5V28.9785C6.90154 29.3759 7.22633 29.7011 7.6233 29.7011H10.2217C10.6186 29.7011 10.9434 29.3759 10.9434 28.9785V18.5C10.9434 18.1025 10.6186 17.7773 10.2217 17.7773ZM9.42771 28.3281H8.34507V19.2226H9.42771V28.3281ZM15.4905 16.2597H12.8922C12.4952 16.2597 12.1704 16.5849 12.1704 16.9824V29.0507C12.1704 29.4482 12.4952 29.7734 12.8922 29.7734H15.4905C15.8875 29.7734 16.2123 29.4482 16.2123 29.0507V16.9824C16.2123 16.5849 15.8875 16.2597 15.4905 16.2597ZM14.6966 28.3281H13.614V17.705H14.6966V28.3281ZM4.95277 23.5585H2.35442C1.95745 23.5585 1.63265 23.8837 1.63265 24.2812V29.0507C1.63265 29.4482 1.95745 29.7734 2.35442 29.7734H4.95277C5.34974 29.7734 5.67454 29.4482 5.67454 29.0507V24.2812C5.67454 23.8837 5.34974 23.5585 4.95277 23.5585ZM4.23101 28.3281H3.07618V25.0039H4.23101V28.3281ZM2.29668 20.415L14.5956 8.10093L17.0856 10.5941C17.3671 10.8759 17.8218 10.8759 18.1033 10.5941L25.7035 2.98452L25.6963 5.79565C25.6963 6.18589 26.0139 6.50386 26.4108 6.50386H26.4181C26.8078 6.51108 27.1326 6.19312 27.1398 5.80288V5.79565L27.147 1.23569C27.147 1.0478 27.0749 0.859913 26.9377 0.729835C26.8006 0.59253 26.6202 0.520264 26.4253 0.520264L21.8565 0.527491C21.4595 0.520264 21.1347 0.838233 21.1275 1.22847C21.1203 1.6187 21.4379 1.95112 21.8276 1.95835C21.8349 1.95835 21.8421 1.95835 21.8493 1.95835H24.6642L17.5764 9.06206L15.0864 6.57612C14.8049 6.29429 14.3502 6.29429 14.0687 6.57612L1.27899 19.396C0.997499 19.6779 0.997499 20.1332 1.27899 20.415C1.56048 20.6968 2.01519 20.6968 2.29668 20.415ZM32.0334 28.4654C31.8963 28.3281 31.7158 28.2558 31.5209 28.2558C31.3261 28.2558 31.1456 28.3353 31.0085 28.4654L30.5105 28.9712L29.9331 28.3931C32.5964 25.1845 32.1489 20.4222 28.9515 17.7628C28.2513 17.1847 27.4574 16.7367 26.6057 16.4404V9.68355C26.5985 9.27886 26.2665 8.96089 25.8695 8.96812H23.2856C22.8886 8.96812 22.5638 9.28609 22.5638 9.68355V16.1875C22.1669 16.2669 21.7843 16.3826 21.409 16.5416V13.1667C21.409 12.7693 21.0481 12.4369 20.6512 12.4369H18.0672C17.6703 12.4441 17.3599 12.7621 17.3599 13.1595V13.1667V20.2271C16.8475 21.275 16.5732 22.424 16.5588 23.5875C16.566 27.75 19.9366 31.1392 24.1084 31.1464C25.8623 31.1464 27.5657 30.5394 28.9226 29.4193L29.5 29.9974L28.9875 30.5105C28.7061 30.7923 28.7061 31.2476 28.9875 31.5294L33.3109 35.8509C34.1482 36.6964 35.5123 36.7037 36.3568 35.8654L36.364 35.8582C37.2012 35.0127 37.2012 33.6468 36.364 32.8085L32.0334 28.4654ZM24.0074 10.4062H25.1622V16.0935C24.8157 16.0501 24.4693 16.0212 24.1228 16.0212C24.0868 16.0212 24.0074 16.0212 24.0074 16.0212V10.4062ZM18.8107 13.875H19.9655V17.2859C19.5469 17.5533 19.1643 17.864 18.8107 18.2109V13.875ZM24.1156 29.7011C20.745 29.6939 18.0095 26.9623 18.0023 23.5802C18.0023 22.583 18.2405 21.6074 18.7096 20.7257C19.2365 19.7212 20.0377 18.883 21.0193 18.3048C21.741 17.8785 22.5422 17.6039 23.3722 17.5099C23.6176 17.481 23.863 17.4666 24.1084 17.4666C27.4791 17.4666 30.2145 20.2054 30.2145 23.5802C30.2145 26.955 27.4863 29.7011 24.1156 29.7011ZM35.3391 34.832C35.0648 35.1138 34.6173 35.1138 34.3358 34.8392C34.3358 34.8392 34.3358 34.8392 34.3286 34.832L30.5105 31.0164L31.5209 30.0046L35.3391 33.8203C35.6134 34.1021 35.6134 34.5501 35.3391 34.832Z" fill="white"/>
<path d="M24.1159 18.0015C21.0339 18.0015 18.5366 20.5019 18.5366 23.5804C18.5366 26.6589 21.0339 29.1665 24.1086 29.1665C27.1834 29.1665 29.6879 26.6661 29.6879 23.5876C29.6879 23.5876 29.6879 23.5876 29.6879 23.5804C29.6879 20.5019 27.1906 18.0015 24.1159 18.0015ZM24.1159 27.7212C21.8351 27.7212 19.9802 25.8712 19.9802 23.5876C19.9802 21.304 21.8279 19.4468 24.1086 19.4468C26.3894 19.4468 28.2444 21.2968 28.2444 23.5804C28.2444 25.864 26.3966 27.7212 24.1159 27.7212Z" fill="white"/>
</svg>
