<svg width="38" height="37" viewBox="0 0 38 37" fill="none" xmlns="http://www.w3.org/2000/svg">
<path d="M33.6439 1.15625H4.77329C3.17963 1.15625 1.88623 2.45125 1.88623 4.04688V21.3906C1.88623 22.9862 3.17963 24.2812 4.77329 24.2812H10.5705C10.8881 24.2812 11.1479 24.0211 11.1479 23.7031C11.1479 23.3852 10.8881 23.125 10.5705 23.125H6.50553V2.3125H31.9117V23.125H27.8467C27.5291 23.125 27.2693 23.3852 27.2693 23.7031C27.2693 24.0211 27.5291 24.2812 27.8467 24.2812H33.6439C35.2376 24.2812 36.531 22.9862 36.531 21.3906V4.04688C36.531 2.45125 35.2376 1.15625 33.6439 1.15625Z" fill="white"/>
<path d="M26.9056 29.0739C26.6804 28.8484 26.3109 28.8484 26.0857 29.0739L25.4506 29.7156L24.4921 28.7559C25.5198 27.5477 26.1377 25.9867 26.1377 24.2812C26.1377 20.4541 23.0312 17.3438 19.2087 17.3438C15.3863 17.3438 12.2798 20.4541 12.2798 24.2812C12.2798 28.1084 15.3863 31.2188 19.2087 31.2188C20.9121 31.2188 22.4711 30.6002 23.6779 29.5711L24.6364 30.5308L23.9955 31.1667C23.8915 31.2766 23.828 31.4211 23.828 31.5772C23.828 31.7333 23.8915 31.8778 23.9955 31.9877L27.6794 35.6761C27.7948 35.7859 27.9392 35.8438 28.0893 35.8438C28.2395 35.8438 28.3838 35.7859 28.4993 35.6761L30.5895 33.5833C30.6935 33.4734 30.757 33.3289 30.757 33.1728C30.757 33.0167 30.6935 32.8722 30.5895 32.7623L26.9056 29.0739ZM19.2087 30.0625C16.0272 30.0625 13.4346 27.4667 13.4346 24.2812C13.4346 21.0958 16.0272 18.5 19.2087 18.5C22.3903 18.5 24.9829 21.0958 24.9829 24.2812C24.9829 27.4667 22.3903 30.0625 19.2087 30.0625Z" fill="white"/>
<path d="M22.6267 21.7491C22.5401 21.5352 22.3265 21.3906 22.0955 21.3906H19.7859C19.4683 21.3906 19.2085 21.6508 19.2085 21.9688C19.2085 22.2867 19.4683 22.5469 19.7859 22.5469H20.704L19.2085 24.0442L18.4636 23.2984C18.2384 23.073 17.8746 23.073 17.6494 23.2984L15.3398 25.6109C15.1146 25.8364 15.1146 26.2006 15.3398 26.4261C15.4553 26.5417 15.5996 26.5938 15.7498 26.5938C15.8999 26.5938 16.0442 26.5359 16.1597 26.4261L18.0594 24.5241L18.8043 25.2698C19.0295 25.4953 19.3932 25.4953 19.6184 25.2698L21.5181 23.3678V24.287C21.5181 24.605 21.7779 24.8652 22.0955 24.8652C22.4131 24.8652 22.6729 24.605 22.6729 24.287V21.9745C22.6729 21.8994 22.6614 21.8242 22.6325 21.7548L22.6267 21.7491Z" fill="white"/>
<path d="M18.0541 6.9375H15.7444C15.4255 6.9375 15.167 7.19634 15.167 7.51562V15.6094C15.167 15.9287 15.4255 16.1875 15.7444 16.1875H18.0541C18.3729 16.1875 18.6315 15.9287 18.6315 15.6094V7.51562C18.6315 7.19634 18.3729 6.9375 18.0541 6.9375Z" fill="white"/>
<path d="M22.6732 9.25H20.3635C20.0446 9.25 19.7861 9.50884 19.7861 9.82812V15.6094C19.7861 15.9287 20.0446 16.1875 20.3635 16.1875H22.6732C22.9921 16.1875 23.2506 15.9287 23.2506 15.6094V9.82812C23.2506 9.50884 22.9921 9.25 22.6732 9.25Z" fill="white"/>
<path d="M27.2923 4.625H24.9827C24.6638 4.625 24.4053 4.88384 24.4053 5.20312V15.6094C24.4053 15.9287 24.6638 16.1875 24.9827 16.1875H27.2923C27.6112 16.1875 27.8697 15.9287 27.8697 15.6094V5.20312C27.8697 4.88384 27.6112 4.625 27.2923 4.625Z" fill="white"/>
<path d="M13.4344 10.4062H11.1248C10.8059 10.4062 10.5474 10.6651 10.5474 10.9844V15.6094C10.5474 15.9287 10.8059 16.1875 11.1248 16.1875H13.4344C13.7533 16.1875 14.0118 15.9287 14.0118 15.6094V10.9844C14.0118 10.6651 13.7533 10.4062 13.4344 10.4062Z" fill="white"/>
</svg>
