<svg width="38" height="37" viewBox="0 0 38 37" fill="none" xmlns="http://www.w3.org/2000/svg">
<g clip-path="url(#clip0_563_503)">
<path d="M18.7988 0.385376C8.79031 0.385376 0.706543 8.47913 0.706543 18.5V19.2708V21.0437V26.6708C0.706543 27.9041 1.70739 28.9062 2.9392 28.9062H5.78777C6.2497 29.7541 6.78862 30.2166 7.40452 30.2166C8.63634 30.2166 10.0991 29.2145 10.0991 24.2812C10.0991 21.5062 9.5602 16.8041 7.40452 16.8041C6.63464 16.8041 5.94175 17.4979 5.47982 18.8083H2.9392C2.78523 18.8083 2.63125 18.8083 2.55426 18.8854L2.63125 18.6541C4.01704 10.8687 10.869 5.16454 18.7988 5.16454C26.7286 5.16454 33.5805 10.7916 35.0433 18.6541L35.1203 18.8854C34.9663 18.8854 34.8124 18.8083 34.7354 18.8083H32.1948C31.7328 17.4979 31.1169 16.8041 30.27 16.8041C28.1914 16.8041 27.5755 21.5062 27.5755 24.2812C27.5755 29.1375 29.0382 30.2166 30.27 30.2166C30.886 30.2166 31.5019 29.7541 31.8868 28.9062H33.0416V30.602C33.0416 32.0666 31.8098 33.3 30.347 33.3H21.2624C20.9545 32.2979 19.9536 31.527 18.7988 31.527C17.413 31.527 16.2582 32.6833 16.2582 34.0708C16.2582 35.4583 17.413 36.6145 18.7988 36.6145C19.9536 36.6145 20.8775 35.8437 21.2624 34.8416H30.27C32.5797 34.8416 34.5044 32.9145 34.5044 30.602V28.9062H34.7354C35.9672 28.9062 36.968 27.9041 36.968 26.6708V21.0437V19.2708V18.5C36.891 8.47913 28.8073 0.385376 18.7988 0.385376ZM7.40452 18.4229C7.78947 18.8083 8.55935 20.8125 8.55935 24.2812C8.55935 27.5187 7.86645 28.675 7.48151 28.675C7.40452 28.675 7.25055 28.4437 7.01958 27.827L6.86561 27.3645C6.55765 26.5166 6.32669 26.0541 6.32669 24.2812C6.32669 23.8187 6.32669 23.4333 6.40368 22.9708C6.48066 22.2 6.55765 21.4291 6.63464 20.7354C6.71163 20.427 6.78862 20.0416 6.86561 19.7333C7.01958 18.9625 7.25055 18.577 7.40452 18.4229ZM5.09488 20.35C5.09488 20.427 5.09488 20.427 5.09488 20.35C5.09488 20.5041 5.09488 20.5812 5.01789 20.6583C4.9409 20.9666 4.9409 21.1979 4.86391 21.5062C4.86391 21.6604 4.86391 21.7375 4.78692 21.8916C4.78692 22.2 4.70993 22.4312 4.70993 22.7395C4.70993 22.8937 4.70993 22.9708 4.70993 23.125C4.70993 23.5104 4.70993 23.8958 4.70993 24.3583C4.70993 24.5895 4.70993 24.8208 4.70993 24.975C4.70993 25.052 4.70993 25.1291 4.70993 25.1291C4.70993 25.2833 4.70993 25.3604 4.70993 25.5145C4.70993 25.5916 4.70993 25.5916 4.70993 25.6687C4.70993 25.8229 4.70993 25.9 4.78692 26.0541V26.1312C4.78692 26.2854 4.86391 26.4395 4.86391 26.5166V26.5937C4.86391 26.6708 4.9409 26.7479 4.9409 26.825V26.902C4.9409 26.9791 5.01789 27.0562 5.01789 27.1333V27.2104H2.9392C2.55426 27.2104 2.24631 26.902 2.24631 26.5166V20.8895C2.24631 20.5041 2.55426 20.1958 2.9392 20.1958H5.09488V20.35ZM18.7988 35.0729C18.2599 35.0729 17.7979 34.6104 17.7979 34.0708C17.7979 33.5312 18.2599 33.0687 18.7988 33.0687C19.3377 33.0687 19.7996 33.5312 19.7996 34.0708C19.7996 34.6104 19.3377 35.0729 18.7988 35.0729ZM29.0382 24.2812C29.0382 20.7354 29.8081 18.8083 30.1931 18.4229C30.347 18.577 30.578 18.9625 30.809 19.8104C31.1169 21.0437 31.3479 22.6625 31.3479 24.2812C31.3479 26.0541 31.1939 26.5166 30.809 27.3645L30.655 27.827C30.424 28.4437 30.1931 28.5979 30.27 28.675C29.7311 28.675 29.0382 27.5187 29.0382 24.2812ZM35.3513 26.6708C35.3513 27.0562 35.0433 27.3645 34.6584 27.3645H32.4257V27.2875C32.4257 27.2104 32.5027 27.1333 32.5027 27.0562V26.9791C32.5027 26.902 32.5797 26.825 32.5797 26.7479V26.6708C32.5797 26.5166 32.6567 26.4395 32.6567 26.2854V26.2083C32.6567 26.1312 32.6567 25.977 32.7337 25.8229C32.7337 25.7458 32.7337 25.7458 32.7337 25.6687C32.7337 25.5145 32.7337 25.4375 32.7337 25.2833C32.7337 25.2062 32.7337 25.1291 32.7337 25.1291C32.7337 24.8979 32.7337 24.7437 32.7337 24.5125C32.7337 24.127 32.7337 23.6645 32.7337 23.2791C32.7337 23.125 32.7337 23.0479 32.7337 22.8937C32.7337 22.5854 32.6567 22.3541 32.6567 22.0458C32.6567 21.8916 32.6567 21.8145 32.5797 21.6604C32.5797 21.352 32.5027 21.0437 32.4257 20.8125C32.4257 20.7354 32.4257 20.6583 32.4257 20.5812V20.5041H34.5814C34.9663 20.5041 35.2743 20.8125 35.2743 21.1979V26.6708H35.3513ZM18.7988 3.62288C12.4858 3.62288 6.86561 6.86038 3.6321 11.8708C6.17271 6.01246 12.0238 1.92704 18.7988 1.92704C25.5738 1.92704 31.4249 6.01246 33.9655 11.8708C30.732 6.86038 25.1118 3.62288 18.7988 3.62288Z" fill="white"/>
</g>
<defs>
<clipPath id="clip0_563_503">
<rect width="36.9544" height="37" fill="white" transform="translate(0.321777)"/>
</clipPath>
</defs>
</svg>
